<svg xmlns="http://www.w3.org/2000/svg" width="1800" height="600" viewBox="0 0 1800 600" role="img" aria-labelledby="title desc">
<title id="title">ReleaseTruth README hero</title><desc id="desc">ReleaseTruth behavioral compatibility pipeline from capture to ship confidence.</desc>
<defs>
  <linearGradient id="bg" x1="0" y1="0" x2="1800" y2="600"><stop stop-color="#07101f"/><stop offset="1" stop-color="#0b1f36"/></linearGradient>
  <linearGradient id="cyan" x1="0" y1="0" x2="1" y2="1"><stop stop-color="#22d3ee"/><stop offset="1" stop-color="#3b82f6"/></linearGradient>
  <filter id="glow"><feGaussianBlur stdDeviation="6" result="b"/><feMerge><feMergeNode in="b"/><feMergeNode in="SourceGraphic"/></feMerge></filter>
  <pattern id="grid" width="36" height="36" patternUnits="userSpaceOnUse"><path d="M36 0H0V36" fill="none" stroke="#17324f" stroke-width="1" opacity=".35"/></pattern>
</defs>
<rect width="1800" height="600" rx="32" fill="url(#bg)"/><rect width="1800" height="600" rx="32" fill="url(#grid)" opacity=".6"/>
<circle cx="1560" cy="110" r="230" fill="#0ea5e9" opacity=".06"/><circle cx="1480" cy="560" r="260" fill="#2563eb" opacity=".05"/>
<g transform="translate(82 70)">
  <path d="M74 0 136 34v72l-62 36-62-36V34L74 0Z" fill="none" stroke="url(#cyan)" stroke-width="10" filter="url(#glow)"/>
  <path d="m42 72 20 20 44-50" fill="none" stroke="#22d3ee" stroke-width="10" stroke-linecap="round" stroke-linejoin="round"/>
  <text x="178" y="68" fill="#f8fafc" font-family="Inter,Segoe UI,Arial,sans-serif" font-size="72" font-weight="800">Release<tspan fill="#22d3ee">Truth</tspan></text>
  <text x="180" y="112" fill="#7dd3fc" font-family="Inter,Segoe UI,Arial,sans-serif" font-size="22" font-weight="700" letter-spacing="5">BEHAVIORAL COMPATIBILITY FOR REAL RELEASES</text>
  <text x="180" y="154" fill="#cbd5e1" font-family="Inter,Segoe UI,Arial,sans-serif" font-size="25">Capture observable behavior, normalize noise, fingerprint deterministically, compare releases, and block regressions with evidence.</text>
</g>
<g transform="translate(70 305)" font-family="Inter,Segoe UI,Arial,sans-serif">
  <g><rect width="245" height="150" rx="22" fill="#0d2035" stroke="#22d3ee" stroke-opacity=".75"/><text x="22" y="42" fill="#67e8f9" font-size="16" font-weight="700">01</text><text x="22" y="78" fill="#fff" font-size="27" font-weight="800">CAPTURE</text><text x="22" y="108" fill="#a8bfd3" font-size="17">API · Browser · A11y</text><text x="22" y="132" fill="#a8bfd3" font-size="17">CLI · Events · Performance</text></g>
  <path d="M258 75h38" stroke="#22d3ee" stroke-width="4"/><path d="m292 67 12 8-12 8" fill="none" stroke="#22d3ee" stroke-width="4"/>
  <g transform="translate(310)"><rect width="245" height="150" rx="22" fill="#0d2035" stroke="#2585d8"/><text x="22" y="42" fill="#7dd3fc" font-size="16" font-weight="700">02</text><text x="22" y="78" fill="#fff" font-size="27" font-weight="800">NORMALIZE</text><text x="22" y="108" fill="#a8bfd3" font-size="17">Remove volatile noise</text><text x="22" y="132" fill="#a8bfd3" font-size="17">without erasing meaning</text></g>
  <path d="M568 75h38" stroke="#22d3ee" stroke-width="4"/><path d="m602 67 12 8-12 8" fill="none" stroke="#22d3ee" stroke-width="4"/>
  <g transform="translate(620)"><rect width="245" height="150" rx="22" fill="#0d2035" stroke="#2585d8"/><text x="22" y="42" fill="#7dd3fc" font-size="16" font-weight="700">03</text><text x="22" y="78" fill="#fff" font-size="27" font-weight="800">FINGERPRINT</text><text x="22" y="108" fill="#a8bfd3" font-size="17">Stable SHA-256 identity</text><text x="22" y="132" fill="#a8bfd3" font-size="17">for normalized behavior</text></g>
  <path d="M878 75h38" stroke="#22d3ee" stroke-width="4"/><path d="m912 67 12 8-12 8" fill="none" stroke="#22d3ee" stroke-width="4"/>
  <g transform="translate(930)"><rect width="245" height="150" rx="22" fill="#0d2035" stroke="#2585d8"/><text x="22" y="42" fill="#7dd3fc" font-size="16" font-weight="700">04</text><text x="22" y="78" fill="#fff" font-size="27" font-weight="800">COMPARE</text><text x="22" y="108" fill="#a8bfd3" font-size="17">Diff · classify · score</text><text x="22" y="132" fill="#a8bfd3" font-size="17">with deterministic rules</text></g>
  <path d="M1188 75h38" stroke="#22d3ee" stroke-width="4"/><path d="m1222 67 12 8-12 8" fill="none" stroke="#22d3ee" stroke-width="4"/>
  <g transform="translate(1240)"><rect width="245" height="150" rx="22" fill="#0d2035" stroke="#2585d8"/><text x="22" y="42" fill="#7dd3fc" font-size="16" font-weight="700">05</text><text x="22" y="78" fill="#fff" font-size="27" font-weight="800">PERSIST</text><text x="22" y="108" fill="#a8bfd3" font-size="17">Reports · API · history</text><text x="22" y="132" fill="#a8bfd3" font-size="17">SQLite / PostgreSQL</text></g>
  <path d="M1498 75h38" stroke="#22d3ee" stroke-width="4"/><path d="m1532 67 12 8-12 8" fill="none" stroke="#22d3ee" stroke-width="4"/>
  <g transform="translate(1550)"><rect width="180" height="150" rx="22" fill="#0b2a37" stroke="#34d399"/><text x="20" y="42" fill="#6ee7b7" font-size="16" font-weight="700">06</text><text x="20" y="78" fill="#fff" font-size="27" font-weight="800">SHIP</text><text x="20" y="108" fill="#b6ead6" font-size="17">Gate releases with</text><text x="20" y="132" fill="#b6ead6" font-size="17">observable evidence</text></g>
</g>
<text x="900" y="535" text-anchor="middle" fill="#8fb4ce" font-family="Inter,Segoe UI,Arial,sans-serif" font-size="20" letter-spacing="3">DETERMINISTIC FIRST · EVIDENCE FIRST · LOCAL FIRST · CI READY</text>
</svg>
